<svg width="100" height="100" viewBox="0 0 100 100" fill="none" xmlns="http://www.w3.org/2000/svg">
<rect width="100" height="100" fill="#D9D9D9"/>
<path d="M30.3725 28.228V38H28.4125V28.228H30.3725ZM43.063 28.228V38H41.103V31.644L38.485 38H37.001L34.369 31.644V38H32.409V28.228H34.635L37.743 35.494L40.851 28.228H43.063ZM51.0928 36.138H47.2008L46.5568 38H44.4988L48.0128 28.214H50.2948L53.8088 38H51.7368L51.0928 36.138ZM50.5608 34.57L49.1468 30.482L47.7328 34.57H50.5608ZM62.0262 31.168C61.8022 30.7573 61.4942 30.4447 61.1022 30.23C60.7102 30.0153 60.2529 29.908 59.7302 29.908C59.1516 29.908 58.6382 30.0387 58.1902 30.3C57.7422 30.5613 57.3922 30.9347 57.1402 31.42C56.8882 31.9053 56.7622 32.4653 56.7622 33.1C56.7622 33.7533 56.8882 34.3227 57.1402 34.808C57.4016 35.2933 57.7609 35.6667 58.2182 35.928C58.6756 36.1893 59.2076 36.32 59.8142 36.32C60.5609 36.32 61.1722 36.124 61.6482 35.732C62.1242 35.3307 62.4369 34.7753 62.5862 34.066H59.2262V32.568H64.5182V34.276C64.3876 34.9573 64.1076 35.5873 63.6782 36.166C63.2489 36.7447 62.6936 37.2113 62.0122 37.566C61.3402 37.9113 60.5842 38.084 59.7442 38.084C58.8016 38.084 57.9476 37.874 57.1822 37.454C56.4262 37.0247 55.8289 36.432 55.3902 35.676C54.9609 34.92 54.7462 34.0613 54.7462 33.1C54.7462 32.1387 54.9609 31.28 55.3902 30.524C55.8289 29.7587 56.4262 29.166 57.1822 28.746C57.9476 28.3167 58.7969 28.102 59.7302 28.102C60.8316 28.102 61.7882 28.3727 62.6002 28.914C63.4122 29.446 63.9722 30.1973 64.2802 31.168H62.0262ZM68.0283 29.81V32.26H71.3183V33.814H68.0283V36.404H71.7383V38H66.0683V28.214H71.7383V29.81H68.0283ZM44.5404 55H42.5804L38.1424 48.294V55H36.1824V45.214H38.1424L42.5804 51.934V45.214H44.5404V55ZM51.1133 55.098C50.1987 55.098 49.3587 54.8833 48.5933 54.454C47.828 54.0247 47.2213 53.432 46.7733 52.676C46.3253 51.9107 46.1013 51.0473 46.1013 50.086C46.1013 49.134 46.3253 48.28 46.7733 47.524C47.2213 46.7587 47.828 46.1613 48.5933 45.732C49.3587 45.3027 50.1987 45.088 51.1133 45.088C52.0373 45.088 52.8773 45.3027 53.6333 45.732C54.3987 46.1613 55.0007 46.7587 55.4393 47.524C55.8873 48.28 56.1113 49.134 56.1113 50.086C56.1113 51.0473 55.8873 51.9107 55.4393 52.676C55.0007 53.432 54.3987 54.0247 53.6333 54.454C52.868 54.8833 52.028 55.098 51.1133 55.098ZM51.1133 53.348C51.7013 53.348 52.2193 53.2173 52.6673 52.956C53.1153 52.6853 53.4653 52.3027 53.7173 51.808C53.9693 51.3133 54.0953 50.7393 54.0953 50.086C54.0953 49.4327 53.9693 48.8633 53.7173 48.378C53.4653 47.8833 53.1153 47.5053 52.6673 47.244C52.2193 46.9827 51.7013 46.852 51.1133 46.852C50.5253 46.852 50.0027 46.9827 49.5453 47.244C49.0973 47.5053 48.7473 47.8833 48.4953 48.378C48.2433 48.8633 48.1173 49.4327 48.1173 50.086C48.1173 50.7393 48.2433 51.3133 48.4953 51.808C48.7473 52.3027 49.0973 52.6853 49.5453 52.956C50.0027 53.2173 50.5253 53.348 51.1133 53.348ZM64.3195 45.228V46.81H61.7155V55H59.7555V46.81H57.1515V45.228H64.3195ZM22.8172 66.252C22.8172 66.7747 22.6912 67.2647 22.4392 67.722C22.1965 68.1793 21.8092 68.548 21.2772 68.828C20.7545 69.108 20.0919 69.248 19.2892 69.248H17.6512V73H15.6912V63.228H19.2892C20.0452 63.228 20.6892 63.3587 21.2212 63.62C21.7532 63.8813 22.1499 64.2407 22.4112 64.698C22.6819 65.1553 22.8172 65.6733 22.8172 66.252ZM19.2052 67.666C19.7465 67.666 20.1479 67.5447 20.4092 67.302C20.6705 67.05 20.8012 66.7 20.8012 66.252C20.8012 65.3 20.2692 64.824 19.2052 64.824H17.6512V67.666H19.2052ZM29.3488 73L27.1928 69.192H26.2688V73H24.3088V63.228H27.9768C28.7328 63.228 29.3768 63.3633 29.9088 63.634C30.4408 63.8953 30.8374 64.2547 31.0988 64.712C31.3694 65.16 31.5048 65.664 31.5048 66.224C31.5048 66.868 31.3181 67.4513 30.9448 67.974C30.5714 68.4873 30.0161 68.842 29.2788 69.038L31.6168 73H29.3488ZM26.2688 67.722H27.9068C28.4388 67.722 28.8354 67.596 29.0968 67.344C29.3581 67.0827 29.4888 66.7233 29.4888 66.266C29.4888 65.818 29.3581 65.4727 29.0968 65.23C28.8354 64.978 28.4388 64.852 27.9068 64.852H26.2688V67.722ZM37.9135 73.098C36.9989 73.098 36.1589 72.8833 35.3935 72.454C34.6282 72.0247 34.0215 71.432 33.5735 70.676C33.1255 69.9107 32.9015 69.0473 32.9015 68.086C32.9015 67.134 33.1255 66.28 33.5735 65.524C34.0215 64.7587 34.6282 64.1613 35.3935 63.732C36.1589 63.3027 36.9989 63.088 37.9135 63.088C38.8375 63.088 39.6775 63.3027 40.4335 63.732C41.1989 64.1613 41.8009 64.7587 42.2395 65.524C42.6875 66.28 42.9115 67.134 42.9115 68.086C42.9115 69.0473 42.6875 69.9107 42.2395 70.676C41.8009 71.432 41.1989 72.0247 40.4335 72.454C39.6682 72.8833 38.8282 73.098 37.9135 73.098ZM37.9135 71.348C38.5015 71.348 39.0195 71.2173 39.4675 70.956C39.9155 70.6853 40.2655 70.3027 40.5175 69.808C40.7695 69.3133 40.8955 68.7393 40.8955 68.086C40.8955 67.4327 40.7695 66.8633 40.5175 66.378C40.2655 65.8833 39.9155 65.5053 39.4675 65.244C39.0195 64.9827 38.5015 64.852 37.9135 64.852C37.3255 64.852 36.8029 64.9827 36.3455 65.244C35.8975 65.5053 35.5475 65.8833 35.2955 66.378C35.0435 66.8633 34.9175 67.4327 34.9175 68.086C34.9175 68.7393 35.0435 69.3133 35.2955 69.808C35.5475 70.3027 35.8975 70.6853 36.3455 70.956C36.8029 71.2173 37.3255 71.348 37.9135 71.348ZM53.2477 63.228L49.6637 73H47.2837L43.6997 63.228H45.7997L48.4877 70.998L51.1617 63.228H53.2477ZM56.4828 63.228V73H54.5228V63.228H56.4828ZM61.9353 63.228C62.962 63.228 63.8627 63.4287 64.6373 63.83C65.4213 64.2313 66.0233 64.8053 66.4433 65.552C66.8727 66.2893 67.0873 67.148 67.0873 68.128C67.0873 69.108 66.8727 69.9667 66.4433 70.704C66.0233 71.432 65.4213 71.9967 64.6373 72.398C63.8627 72.7993 62.962 73 61.9353 73H58.5193V63.228H61.9353ZM61.8653 71.334C62.892 71.334 63.6853 71.054 64.2453 70.494C64.8053 69.934 65.0853 69.1453 65.0853 68.128C65.0853 67.1107 64.8053 66.3173 64.2453 65.748C63.6853 65.1693 62.892 64.88 61.8653 64.88H60.4793V71.334H61.8653ZM70.6145 64.81V67.26H73.9045V68.814H70.6145V71.404H74.3245V73H68.6545V63.214H74.3245V64.81H70.6145ZM79.6217 63.228C80.6483 63.228 81.549 63.4287 82.3237 63.83C83.1077 64.2313 83.7097 64.8053 84.1297 65.552C84.559 66.2893 84.7737 67.148 84.7737 68.128C84.7737 69.108 84.559 69.9667 84.1297 70.704C83.7097 71.432 83.1077 71.9967 82.3237 72.398C81.549 72.7993 80.6483 73 79.6217 73H76.2057V63.228H79.6217ZM79.5517 71.334C80.5783 71.334 81.3717 71.054 81.9317 70.494C82.4917 69.934 82.7717 69.1453 82.7717 68.128C82.7717 67.1107 82.4917 66.3173 81.9317 65.748C81.3717 65.1693 80.5783 64.88 79.5517 64.88H78.1657V71.334H79.5517Z" fill="#979797"/>
</svg>
