<svg width="117" height="23" viewBox="0 0 117 23" fill="none" xmlns="http://www.w3.org/2000/svg">
<g clip-path="url(#clip0_19_1770)">
<path d="M3.59375 11.5C3.78437 11.5 3.96719 11.4243 4.10198 11.2895C4.23677 11.1547 4.3125 10.9719 4.3125 10.7812C4.3125 10.5906 4.23677 10.4078 4.10198 10.273C3.96719 10.1382 3.78437 10.0625 3.59375 10.0625C3.40313 10.0625 3.22031 10.1382 3.08552 10.273C2.95073 10.4078 2.875 10.5906 2.875 10.7812C2.875 10.9719 2.95073 11.1547 3.08552 11.2895C3.22031 11.4243 3.40313 11.5 3.59375 11.5Z" fill="white"/>
<path d="M7.1875 1.4375C6.425 1.4375 5.69374 1.7404 5.15457 2.27957C4.6154 2.81874 4.3125 3.55 4.3125 4.3125V7.1875H2.875C2.1125 7.1875 1.38124 7.4904 0.842068 8.02957C0.302901 8.56874 0 9.3 0 10.0625L0 14.375C0 15.1375 0.302901 15.8688 0.842068 16.4079C1.38124 16.9471 2.1125 17.25 2.875 17.25H4.3125V18.6875C4.3125 19.45 4.6154 20.1813 5.15457 20.7204C5.69374 21.2596 6.425 21.5625 7.1875 21.5625H15.8125C16.575 21.5625 17.3063 21.2596 17.8454 20.7204C18.3846 20.1813 18.6875 19.45 18.6875 18.6875V17.25H20.125C20.8875 17.25 21.6188 16.9471 22.1579 16.4079C22.6971 15.8688 23 15.1375 23 14.375V10.0625C23 9.3 22.6971 8.56874 22.1579 8.02957C21.6188 7.4904 20.8875 7.1875 20.125 7.1875H18.6875V4.3125C18.6875 3.55 18.3846 2.81874 17.8454 2.27957C17.3063 1.7404 16.575 1.4375 15.8125 1.4375H7.1875ZM5.75 4.3125C5.75 3.93125 5.90145 3.56562 6.17103 3.29603C6.44062 3.02645 6.80625 2.875 7.1875 2.875H15.8125C16.1937 2.875 16.5594 3.02645 16.829 3.29603C17.0985 3.56562 17.25 3.93125 17.25 4.3125V7.1875H5.75V4.3125ZM7.1875 11.5C6.425 11.5 5.69374 11.8029 5.15457 12.3421C4.6154 12.8812 4.3125 13.6125 4.3125 14.375V15.8125H2.875C2.49375 15.8125 2.12812 15.661 1.85853 15.3915C1.58895 15.1219 1.4375 14.7562 1.4375 14.375V10.0625C1.4375 9.68125 1.58895 9.31562 1.85853 9.04603C2.12812 8.77645 2.49375 8.625 2.875 8.625H20.125C20.5062 8.625 20.8719 8.77645 21.1415 9.04603C21.411 9.31562 21.5625 9.68125 21.5625 10.0625V14.375C21.5625 14.7562 21.411 15.1219 21.1415 15.3915C20.8719 15.661 20.5062 15.8125 20.125 15.8125H18.6875V14.375C18.6875 13.6125 18.3846 12.8812 17.8454 12.3421C17.3063 11.8029 16.575 11.5 15.8125 11.5H7.1875ZM17.25 14.375V18.6875C17.25 19.0687 17.0985 19.4344 16.829 19.704C16.5594 19.9735 16.1937 20.125 15.8125 20.125H7.1875C6.80625 20.125 6.44062 19.9735 6.17103 19.704C5.90145 19.4344 5.75 19.0687 5.75 18.6875V14.375C5.75 13.9938 5.90145 13.6281 6.17103 13.3585C6.44062 13.089 6.80625 12.9375 7.1875 12.9375H15.8125C16.1937 12.9375 16.5594 13.089 16.829 13.3585C17.0985 13.6281 17.25 13.9938 17.25 14.375Z" fill="white"/>
</g>
<path d="M40.092 9.252C40.092 9.77467 39.966 10.2647 39.714 10.722C39.4713 11.1793 39.084 11.548 38.552 11.828C38.0293 12.108 37.3667 12.248 36.564 12.248H34.926V16H32.966V6.228H36.564C37.32 6.228 37.964 6.35867 38.496 6.62C39.028 6.88133 39.4247 7.24067 39.686 7.698C39.9567 8.15533 40.092 8.67333 40.092 9.252ZM36.48 10.666C37.0213 10.666 37.4227 10.5447 37.684 10.302C37.9453 10.05 38.076 9.7 38.076 9.252C38.076 8.3 37.544 7.824 36.48 7.824H34.926V10.666H36.48ZM43.5436 9.448C43.7956 9.03733 44.1222 8.71533 44.5236 8.482C44.9342 8.24867 45.4009 8.132 45.9236 8.132V10.19H45.4056C44.7896 10.19 44.3229 10.3347 44.0056 10.624C43.6976 10.9133 43.5436 11.4173 43.5436 12.136V16H41.5836V8.244H43.5436V9.448ZM48.3377 7.32C47.9924 7.32 47.7031 7.21267 47.4697 6.998C47.2457 6.774 47.1337 6.49867 47.1337 6.172C47.1337 5.84533 47.2457 5.57467 47.4697 5.36C47.7031 5.136 47.9924 5.024 48.3377 5.024C48.6831 5.024 48.9677 5.136 49.1917 5.36C49.4251 5.57467 49.5417 5.84533 49.5417 6.172C49.5417 6.49867 49.4251 6.774 49.1917 6.998C48.9677 7.21267 48.6831 7.32 48.3377 7.32ZM49.3037 8.244V16H47.3437V8.244H49.3037ZM55.6382 8.132C56.5622 8.132 57.3089 8.426 57.8782 9.014C58.4476 9.59267 58.7322 10.4047 58.7322 11.45V16H56.7722V11.716C56.7722 11.1 56.6182 10.6287 56.3102 10.302C56.0022 9.966 55.5822 9.798 55.0502 9.798C54.5089 9.798 54.0796 9.966 53.7622 10.302C53.4542 10.6287 53.3002 11.1 53.3002 11.716V16H51.3402V8.244H53.3002V9.21C53.5616 8.874 53.8929 8.61267 54.2942 8.426C54.7049 8.23 55.1529 8.132 55.6382 8.132ZM62.9781 9.854V13.606C62.9781 13.8673 63.0387 14.0587 63.1601 14.18C63.2907 14.292 63.5054 14.348 63.8041 14.348H64.7141V16H63.4821C61.8301 16 61.0041 15.1973 61.0041 13.592V9.854H60.0801V8.244H61.0041V6.326H62.9781V8.244H64.7141V9.854H62.9781ZM74.6997 16L72.5437 12.192H71.6197V16H69.6597V6.228H73.3277C74.0837 6.228 74.7277 6.36333 75.2597 6.634C75.7917 6.89533 76.1884 7.25467 76.4497 7.712C76.7204 8.16 76.8557 8.664 76.8557 9.224C76.8557 9.868 76.6691 10.4513 76.2957 10.974C75.9224 11.4873 75.3671 11.842 74.6297 12.038L76.9677 16H74.6997ZM71.6197 10.722H73.2577C73.7897 10.722 74.1864 10.596 74.4477 10.344C74.7091 10.0827 74.8397 9.72333 74.8397 9.266C74.8397 8.818 74.7091 8.47267 74.4477 8.23C74.1864 7.978 73.7897 7.852 73.2577 7.852H71.6197V10.722ZM85.9385 11.954C85.9385 12.234 85.9198 12.486 85.8825 12.71H80.2125C80.2592 13.27 80.4552 13.7087 80.8005 14.026C81.1458 14.3433 81.5705 14.502 82.0745 14.502C82.8025 14.502 83.3205 14.1893 83.6285 13.564H85.7425C85.5185 14.3107 85.0892 14.9267 84.4545 15.412C83.8198 15.888 83.0405 16.126 82.1165 16.126C81.3698 16.126 80.6978 15.9627 80.1005 15.636C79.5125 15.3 79.0505 14.8287 78.7145 14.222C78.3878 13.6153 78.2245 12.9153 78.2245 12.122C78.2245 11.3193 78.3878 10.6147 78.7145 10.008C79.0412 9.40133 79.4985 8.93467 80.0865 8.608C80.6745 8.28133 81.3512 8.118 82.1165 8.118C82.8538 8.118 83.5118 8.27667 84.0905 8.594C84.6785 8.91133 85.1312 9.364 85.4485 9.952C85.7752 10.5307 85.9385 11.198 85.9385 11.954ZM83.9085 11.394C83.8992 10.89 83.7172 10.4887 83.3625 10.19C83.0078 9.882 82.5738 9.728 82.0605 9.728C81.5752 9.728 81.1645 9.87733 80.8285 10.176C80.5018 10.4653 80.3012 10.8713 80.2265 11.394H83.9085ZM89.4291 9.364C89.6811 9.00933 90.0265 8.71533 90.4651 8.482C90.9131 8.23933 91.4218 8.118 91.9911 8.118C92.6538 8.118 93.2511 8.28133 93.7831 8.608C94.3245 8.93467 94.7491 9.40133 95.0571 10.008C95.3745 10.6053 95.5331 11.3007 95.5331 12.094C95.5331 12.8873 95.3745 13.592 95.0571 14.208C94.7491 14.8147 94.3245 15.286 93.7831 15.622C93.2511 15.958 92.6538 16.126 91.9911 16.126C91.4218 16.126 90.9178 16.0093 90.4791 15.776C90.0498 15.5427 89.6998 15.2487 89.4291 14.894V19.696H87.4691V8.244H89.4291V9.364ZM93.5311 12.094C93.5311 11.6273 93.4331 11.226 93.2371 10.89C93.0505 10.5447 92.7985 10.2833 92.4811 10.106C92.1731 9.92867 91.8371 9.84 91.4731 9.84C91.1185 9.84 90.7825 9.93333 90.4651 10.12C90.1571 10.2973 89.9051 10.5587 89.7091 10.904C89.5225 11.2493 89.4291 11.6553 89.4291 12.122C89.4291 12.5887 89.5225 12.9947 89.7091 13.34C89.9051 13.6853 90.1571 13.9513 90.4651 14.138C90.7825 14.3153 91.1185 14.404 91.4731 14.404C91.8371 14.404 92.1731 14.3107 92.4811 14.124C92.7985 13.9373 93.0505 13.6713 93.2371 13.326C93.4331 12.9807 93.5311 12.57 93.5311 12.094ZM100.501 16.126C99.7547 16.126 99.0827 15.9627 98.4854 15.636C97.8881 15.3 97.4167 14.8287 97.0714 14.222C96.7354 13.6153 96.5674 12.9153 96.5674 12.122C96.5674 11.3287 96.7401 10.6287 97.0854 10.022C97.4401 9.41533 97.9207 8.94867 98.5274 8.622C99.1341 8.286 99.8107 8.118 100.557 8.118C101.304 8.118 101.981 8.286 102.587 8.622C103.194 8.94867 103.67 9.41533 104.015 10.022C104.37 10.6287 104.547 11.3287 104.547 12.122C104.547 12.9153 104.365 13.6153 104.001 14.222C103.647 14.8287 103.161 15.3 102.545 15.636C101.939 15.9627 101.257 16.126 100.501 16.126ZM100.501 14.418C100.856 14.418 101.187 14.334 101.495 14.166C101.813 13.9887 102.065 13.7273 102.251 13.382C102.438 13.0367 102.531 12.6167 102.531 12.122C102.531 11.3847 102.335 10.82 101.943 10.428C101.561 10.0267 101.089 9.826 100.529 9.826C99.9694 9.826 99.4981 10.0267 99.1154 10.428C98.7421 10.82 98.5554 11.3847 98.5554 12.122C98.5554 12.8593 98.7374 13.4287 99.1014 13.83C99.4747 14.222 99.9414 14.418 100.501 14.418ZM108.045 9.448C108.297 9.03733 108.624 8.71533 109.025 8.482C109.436 8.24867 109.902 8.132 110.425 8.132V10.19H109.907C109.291 10.19 108.824 10.3347 108.507 10.624C108.199 10.9133 108.045 11.4173 108.045 12.136V16H106.085V8.244H108.045V9.448ZM114.127 9.854V13.606C114.127 13.8673 114.188 14.0587 114.309 14.18C114.44 14.292 114.655 14.348 114.953 14.348H115.863V16H114.631C112.979 16 112.153 15.1973 112.153 13.592V9.854H111.229V8.244H112.153V6.326H114.127V8.244H115.863V9.854H114.127Z" fill="white"/>
<defs>
<clipPath id="clip0_19_1770">
<rect width="23" height="23" fill="white"/>
</clipPath>
</defs>
</svg>
