<svg width="21" height="27" viewBox="0 0 21 27" fill="none" xmlns="http://www.w3.org/2000/svg">
<path d="M0.375 3.375V26.1562C0.374893 26.3028 0.412943 26.4468 0.485404 26.5741C0.557865 26.7015 0.662241 26.8078 0.788255 26.8825C0.914269 26.9573 1.05758 26.9979 1.20408 27.0005C1.35058 27.003 1.49521 26.9674 1.62375 26.8971L10.5 22.0539L19.3763 26.8971C19.5048 26.9674 19.6494 27.003 19.7959 27.0005C19.9424 26.9979 20.0857 26.9573 20.2117 26.8825C20.3378 26.8078 20.4421 26.7015 20.5146 26.5741C20.5871 26.4468 20.6251 26.3028 20.625 26.1562V3.375C20.625 2.47989 20.2694 1.62145 19.6365 0.988515C19.0035 0.355579 18.1451 0 17.25 0L3.75 0C2.85489 0 1.99645 0.355579 1.36351 0.988515C0.730579 1.62145 0.375 2.47989 0.375 3.375Z" fill="#82C43C"/>
</svg>
